<svg xmlns="http://www.w3.org/2000/svg" xmlns:xlink="http://www.w3.org/1999/xlink" width="960" height="500.5" viewBox="0 0 960 500.5">
  <defs>
    <linearGradient id="linear-gradient" x1="0.814" y1="0.106" x2="0.213" y2="0.854" gradientUnits="objectBoundingBox">
      <stop offset="0" stop-color="#fff" stop-opacity="0"/>
      <stop offset="1" stop-color="#fff" stop-opacity="0.2"/>
    </linearGradient>
    <linearGradient id="linear-gradient-2" x1="0.093" y1="0.119" x2="0.916" y2="0.851" xlink:href="#linear-gradient"/>
  </defs>
  <g id="Group_5" data-name="Group 5" transform="translate(2603.836 -168)">
    <g id="hero_mini" transform="translate(-2603.836 168)">
      <path id="Path_152" data-name="Path 152" d="M1435.164,826.5l959.642-.662V326.667L1435.751,326Z" transform="translate(-1435.164 -326)" fill="#5fcd81"/>
      <path id="Path_351" data-name="Path 351" d="M-3034.666,214.667c-41.333-68-80,121.334-138.667,125.333-29.536,2.013-33.726-20.643-42.515-43.3-8.667-22.346-21.808-44.691-68.152-43.367C-3377.333,256-3316,112-3214.666,108c67.471-2.664,70.511-49.656,65.009-80.768l208.324.1v344s6.592,22.366-36.815,35.5C-2986.331,357.575-3005.006,263.463-3034.666,214.667Z" transform="translate(3900.975 -26.667)" fill="url(#linear-gradient)"/>
      <path id="Path_195" data-name="Path 195" d="M-1412.5,47a23.348,23.348,0,0,1-16.617-6.883A23.344,23.344,0,0,1-1436,23.5a23.347,23.347,0,0,1,6.883-16.618A23.348,23.348,0,0,1-1412.5,0a23.348,23.348,0,0,1,16.617,6.883A23.347,23.347,0,0,1-1389,23.5a23.345,23.345,0,0,1-6.883,16.617A23.348,23.348,0,0,1-1412.5,47Zm0-40.286A16.8,16.8,0,0,0-1429.285,23.5,16.8,16.8,0,0,0-1412.5,40.286,16.8,16.8,0,0,0-1395.714,23.5,16.805,16.805,0,0,0-1412.5,6.714Z" transform="translate(1491.835 273.611)" fill="#fff" stroke="rgba(0,0,0,0)" stroke-width="1" opacity="0.2"/>
      <path id="Path_355" data-name="Path 355" d="M-4241.53,390.684V46.537h5.658c77.6,51.747,88.6,159.233,184.341,104,52.73-30.421,116.771-72.154,176.222-103.822l231.295.113c-36.131,23.25-95.348,48.932-85.517,103.709,14,78,60,182-30,184-38.392.853-70.961-20.493-104.227-41.84-44.718-28.7-90.7-57.391-153.773-32.16-94.464,37.786-183.03,130.145-223.9,130.147Z" transform="translate(4242.366 -46.537)" fill="url(#linear-gradient-2)"/>
      <path id="Path_342" data-name="Path 342" d="M-1424.377,23.246a11.548,11.548,0,0,1-8.219-3.4,11.546,11.546,0,0,1-3.4-8.218,11.548,11.548,0,0,1,3.4-8.219,11.547,11.547,0,0,1,8.219-3.4,11.547,11.547,0,0,1,8.219,3.4,11.548,11.548,0,0,1,3.4,8.219,11.546,11.546,0,0,1-3.4,8.218A11.548,11.548,0,0,1-1424.377,23.246Zm0-19.925a8.312,8.312,0,0,0-8.3,8.3,8.311,8.311,0,0,0,8.3,8.3,8.311,8.311,0,0,0,8.3-8.3,8.312,8.312,0,0,0-8.3-8.3Z" transform="translate(2105.386 75.754)" fill="#fff" stroke="rgba(0,0,0,0)" stroke-width="1" opacity="0.2"/>
      <circle id="Ellipse_80" data-name="Ellipse 80" cx="13.5" cy="13.5" r="13.5" transform="translate(287.26 107.607)" fill="#fff" opacity="0.2"/>
      <circle id="Ellipse_81" data-name="Ellipse 81" cx="18.5" cy="18.5" r="18.5" transform="translate(789.975 286.651)" fill="#fff" opacity="0.2"/>
      <circle id="Ellipse_68" data-name="Ellipse 68" cx="8.5" cy="8.5" r="8.5" transform="translate(429.201 369.038)" fill="#fff" opacity="0.2"/>
      <g id="Path_343" data-name="Path 343" transform="translate(499.586 55.003) rotate(74.991)" opacity="0.2">
        <path id="Path_2226" data-name="Path 2226" d="M14.223,4.114a8.165,8.165,0,0,1,14.178,0L41.548,27.121a8.165,8.165,0,0,1-7.09,12.216H8.165A8.165,8.165,0,0,1,1.076,27.121Z" transform="translate(0.012 0)" fill="none"/>
        <path id="Path_2227" data-name="Path 2227" d="M21.324,5a3.108,3.108,0,0,0-2.748,1.595L5.429,29.6a3.165,3.165,0,0,0,2.748,4.735H34.471A3.165,3.165,0,0,0,37.219,29.6L24.072,6.595A3.108,3.108,0,0,0,21.324,5m0-5a8.087,8.087,0,0,1,7.089,4.114L41.56,27.121a8.165,8.165,0,0,1-7.089,12.216H8.177A8.165,8.165,0,0,1,1.088,27.121L14.235,4.114A8.087,8.087,0,0,1,21.324,0Z" transform="translate(0 0)" fill="#fff"/>
      </g>
      <g id="Path_344" data-name="Path 344" transform="translate(175.524 45.976) rotate(146.993)" opacity="0.2">
        <path id="Path_2228" data-name="Path 2228" d="M12.751,3.688a7.321,7.321,0,0,1,12.712,0L37.25,24.315a7.32,7.32,0,0,1-6.356,10.952H7.32A7.321,7.321,0,0,1,.964,24.315Z" transform="translate(0.012 0.001)" fill="none"/>
        <path id="Path_2229" data-name="Path 2229" d="M19.118,4a3.26,3.26,0,0,0-2.883,1.673L4.448,26.3a3.321,3.321,0,0,0,2.883,4.968H30.906A3.32,3.32,0,0,0,33.789,26.3L22,5.673A3.26,3.26,0,0,0,19.118,4m0-4a7.251,7.251,0,0,1,6.356,3.689L37.262,24.316a7.32,7.32,0,0,1-6.356,10.952H7.331A7.321,7.321,0,0,1,.975,24.316L12.762,3.689A7.251,7.251,0,0,1,19.118,0Z" fill="#fff"/>
      </g>
      <path id="Path_349" data-name="Path 349" d="M-3541.334,357.334c49.333-36,85.334-4,98.667-49.334,11.337-38.546,88.224-26,105.256-2.529-99.087,16.29-120.5,88.257-204.39,113.885C-3557.392,402.493-3569.836,378.133-3541.334,357.334Z" transform="translate(4041.959 72.091)" fill="#fff" opacity="0.16"/>
      <circle id="Ellipse_82" data-name="Ellipse 82" cx="9.5" cy="9.5" r="9.5" transform="translate(200.104 286.589)" fill="#fff" opacity="0.2"/>
    </g>
  </g>
</svg>
