<svg id="Group_6" data-name="Group 6" xmlns="http://www.w3.org/2000/svg" xmlns:xlink="http://www.w3.org/1999/xlink" width="960" height="500.5" viewBox="0 0 960 500.5">
  <defs>
    <linearGradient id="linear-gradient" x1="0.186" y1="0.894" x2="0.787" y2="0.146" gradientUnits="objectBoundingBox">
      <stop offset="0" stop-color="#fff" stop-opacity="0"/>
      <stop offset="1" stop-color="#fff" stop-opacity="0.2"/>
    </linearGradient>
    <linearGradient id="linear-gradient-2" x1="0.907" y1="0.881" x2="0.084" y2="0.149" xlink:href="#linear-gradient"/>
  </defs>
  <g id="hero_mini">
    <path id="Path_152" data-name="Path 152" d="M2394.807,326l-959.642.662V825.833l959.056.667Z" transform="translate(-1434.807 -326)" fill="#5fcd81"/>
    <path id="Path_351" data-name="Path 351" d="M-3236.391,219.4c41.333,68,80-121.334,138.667-125.333,29.536-2.013,33.726,20.643,42.515,43.3,8.667,22.346,21.808,44.691,68.152,43.367,93.333-2.667,32,141.333-69.334,145.333-67.471,2.664-70.511,49.656-65.009,80.768l-208.324-.1v-344s-6.592-22.366,36.815-35.5C-3284.726,76.489-3266.051,170.6-3236.391,219.4Z" transform="translate(3330.081 93.103)" fill="url(#linear-gradient)"/>
    <path id="Path_195" data-name="Path 195" d="M-1412.5,0a23.348,23.348,0,0,1,16.617,6.883A23.344,23.344,0,0,1-1389,23.5a23.347,23.347,0,0,1-6.883,16.618A23.348,23.348,0,0,1-1412.5,47a23.348,23.348,0,0,1-16.617-6.883A23.347,23.347,0,0,1-1436,23.5a23.345,23.345,0,0,1,6.883-16.617A23.348,23.348,0,0,1-1412.5,0Zm0,40.286A16.8,16.8,0,0,0-1395.715,23.5,16.8,16.8,0,0,0-1412.5,6.714,16.8,16.8,0,0,0-1429.286,23.5,16.805,16.805,0,0,0-1412.5,40.286Z" transform="translate(2293.165 179.889)" fill="#fff" stroke="rgba(0,0,0,0)" stroke-width="1" opacity="0.2"/>
    <path id="Path_355" data-name="Path 355" d="M-3644.014,46.537V390.684h-5.658c-77.6-51.747-88.6-159.233-184.341-104-52.73,30.421-116.771,72.154-176.222,103.822l-231.295-.113c36.131-23.25,95.348-48.932,85.517-103.709-14-78-60-182,30-184,38.392-.853,70.961,20.493,104.227,41.84,44.718,28.7,90.7,57.391,153.773,32.16,94.464-37.786,183.03-130.145,223.9-130.147Z" transform="translate(4603.177 109.816)" fill="url(#linear-gradient-2)"/>
    <path id="Path_342" data-name="Path 342" d="M-1424.377.009a11.548,11.548,0,0,1,8.219,3.4,11.546,11.546,0,0,1,3.4,8.218,11.548,11.548,0,0,1-3.4,8.219,11.547,11.547,0,0,1-8.219,3.4,11.547,11.547,0,0,1-8.219-3.4,11.548,11.548,0,0,1-3.4-8.219,11.546,11.546,0,0,1,3.4-8.218A11.548,11.548,0,0,1-1424.377.009Zm0,19.925a8.312,8.312,0,0,0,8.3-8.3,8.311,8.311,0,0,0-8.3-8.3,8.311,8.311,0,0,0-8.3,8.3A8.312,8.312,0,0,0-1424.377,19.934Z" transform="translate(1703.368 401.491)" fill="#fff" stroke="rgba(0,0,0,0)" stroke-width="1" opacity="0.2"/>
    <circle id="Ellipse_80" data-name="Ellipse 80" cx="13.5" cy="13.5" r="13.5" transform="translate(645.74 365.893)" fill="#fff" opacity="0.2"/>
    <circle id="Ellipse_81" data-name="Ellipse 81" cx="100" cy="100" r="100" transform="translate(568.161 13.911)" fill="#fff" opacity="0.2"/>
    <circle id="Ellipse_68" data-name="Ellipse 68" cx="8.5" cy="8.5" r="8.5" transform="translate(513.799 114.462)" fill="#fff" opacity="0.2"/>
    <g id="Path_343" data-name="Path 343" transform="translate(460.414 445.497) rotate(-105.009)" opacity="0.2">
      <path id="Path_2226" data-name="Path 2226" d="M14.224,4.114a8.166,8.166,0,0,1,14.18,0l13.149,23.01a8.166,8.166,0,0,1-7.091,12.217H8.166a8.166,8.166,0,0,1-7.09-12.217Z" transform="translate(0.012 0)" fill="none"/>
      <path id="Path_2227" data-name="Path 2227" d="M21.326,5A3.108,3.108,0,0,0,18.578,6.6L5.43,29.605a3.165,3.165,0,0,0,2.748,4.736h26.3a3.165,3.165,0,0,0,2.748-4.736L24.075,6.6A3.108,3.108,0,0,0,21.326,5m0-5a8.088,8.088,0,0,1,7.09,4.114l13.148,23.01a8.166,8.166,0,0,1-7.09,12.217H8.178a8.166,8.166,0,0,1-7.09-12.217L14.236,4.114A8.088,8.088,0,0,1,21.326,0Z" transform="translate(0 0)" fill="#fff"/>
    </g>
    <g id="Path_344" data-name="Path 344" transform="translate(784.476 454.524) rotate(-33.007)" opacity="0.2">
      <path id="Path_2228" data-name="Path 2228" d="M12.757,3.69a7.324,7.324,0,0,1,12.718,0L37.267,24.327a7.323,7.323,0,0,1-6.359,10.957H7.323A7.324,7.324,0,0,1,.964,24.327Z" transform="translate(0.012 0.001)" fill="none"/>
      <path id="Path_2229" data-name="Path 2229" d="M19.127,4a3.262,3.262,0,0,0-2.884,1.674L4.45,26.313a3.322,3.322,0,0,0,2.884,4.97H30.92a3.322,3.322,0,0,0,2.884-4.97L22.012,5.676A3.262,3.262,0,0,0,19.127,4m0-4a7.254,7.254,0,0,1,6.359,3.69L37.279,24.327A7.324,7.324,0,0,1,30.92,35.285H7.335A7.324,7.324,0,0,1,.976,24.327L12.769,3.69A7.254,7.254,0,0,1,19.128,0Z" transform="translate(0 0)" fill="#fff"/>
    </g>
    <path id="Path_349" data-name="Path 349" d="M-3354.474,345.352c-49.333,36-85.334,4-98.667,49.334-11.337,38.546-88.224,26-105.256,2.529,99.087-16.29,120.5-88.257,204.39-113.885C-3338.416,300.193-3325.972,324.553-3354.474,345.352Z" transform="translate(3813.849 -274.277)" fill="#fff" opacity="0.16"/>
    <circle id="Ellipse_82" data-name="Ellipse 82" cx="9.5" cy="9.5" r="9.5" transform="translate(740.896 194.911)" fill="#fff" opacity="0.2"/>
  </g>
</svg>
